<mxfile host="app.diagrams.net" modified="2021-02-14T16:35:51.885Z" agent="5.0 (Windows NT 10.0; Win64; x64) AppleWebKit/537.36 (KHTML, like Gecko) Chrome/88.0.4324.150 Safari/537.36" etag="IcHBhPSiWOBFmlTKiPOn" version="14.3.1" type="github">
  <diagram id="N79sftpWNEXY0khcwHlc" name="Page-1">
    <mxGraphModel dx="1422" dy="762" grid="1" gridSize="10" guides="1" tooltips="1" connect="1" arrows="1" fold="1" page="1" pageScale="1" pageWidth="827" pageHeight="1169" math="0" shadow="0">
      <root>
        <mxCell id="0" />
        <mxCell id="1" parent="0" />
        <mxCell id="giPu0UekgoksRZJJ2-Mh-1" value="&lt;h1&gt;&lt;font style=&quot;font-size: 36px&quot;&gt;HobbyShop Database&lt;/font&gt;&lt;/h1&gt;" style="text;html=1;strokeColor=#d6b656;fillColor=#fff2cc;spacing=5;spacingTop=-20;whiteSpace=wrap;overflow=hidden;rounded=0;align=center;" vertex="1" parent="1">
          <mxGeometry x="4" y="10" width="820" height="60" as="geometry" />
        </mxCell>
        <mxCell id="giPu0UekgoksRZJJ2-Mh-14" value="Products" style="swimlane;fontStyle=1;align=center;verticalAlign=top;childLayout=stackLayout;horizontal=1;startSize=26;horizontalStack=0;resizeParent=1;resizeParentMax=0;resizeLast=0;collapsible=1;marginBottom=0;fillColor=#f8cecc;strokeColor=#b85450;fontSize=16;spacingTop=-2;" vertex="1" parent="1">
          <mxGeometry x="40" y="126" width="250" height="130" as="geometry" />
        </mxCell>
        <mxCell id="giPu0UekgoksRZJJ2-Mh-15" value="Columns" style="text;strokeColor=#82b366;fillColor=#d5e8d4;align=center;verticalAlign=top;spacingLeft=4;spacingRight=4;overflow=hidden;rotatable=0;points=[[0,0.5],[1,0.5]];portConstraint=eastwest;fontStyle=1;fontSize=14;" vertex="1" parent="giPu0UekgoksRZJJ2-Mh-14">
          <mxGeometry y="26" width="250" height="26" as="geometry" />
        </mxCell>
        <mxCell id="giPu0UekgoksRZJJ2-Mh-16" value="PK int ProductID (Identity)" style="text;strokeColor=none;fillColor=none;align=center;verticalAlign=top;spacingLeft=4;spacingRight=4;overflow=hidden;rotatable=0;points=[[0,0.5],[1,0.5]];portConstraint=eastwest;" vertex="1" parent="giPu0UekgoksRZJJ2-Mh-14">
          <mxGeometry y="52" width="250" height="26" as="geometry" />
        </mxCell>
        <mxCell id="giPu0UekgoksRZJJ2-Mh-17" value="NVARCHAR(128) ProductName (NOT NULL)" style="text;strokeColor=none;fillColor=none;align=center;verticalAlign=top;spacingLeft=4;spacingRight=4;overflow=hidden;rotatable=0;points=[[0,0.5],[1,0.5]];portConstraint=eastwest;" vertex="1" parent="giPu0UekgoksRZJJ2-Mh-14">
          <mxGeometry y="78" width="250" height="26" as="geometry" />
        </mxCell>
        <mxCell id="giPu0UekgoksRZJJ2-Mh-25" value="INT Price" style="text;strokeColor=none;fillColor=none;align=center;verticalAlign=top;spacingLeft=4;spacingRight=4;overflow=hidden;rotatable=0;points=[[0,0.5],[1,0.5]];portConstraint=eastwest;" vertex="1" parent="giPu0UekgoksRZJJ2-Mh-14">
          <mxGeometry y="104" width="250" height="26" as="geometry" />
        </mxCell>
        <mxCell id="giPu0UekgoksRZJJ2-Mh-22" value="Termékeket tárolja" style="text;align=center;fontStyle=1;verticalAlign=middle;spacingLeft=3;spacingRight=3;strokeColor=none;rotatable=0;points=[[0,0.5],[1,0.5]];portConstraint=eastwest;fontSize=20;" vertex="1" parent="1">
          <mxGeometry x="40" y="100" width="250" height="26" as="geometry" />
        </mxCell>
        <mxCell id="giPu0UekgoksRZJJ2-Mh-31" value="Products" style="swimlane;fontStyle=1;align=center;verticalAlign=top;childLayout=stackLayout;horizontal=1;startSize=26;horizontalStack=0;resizeParent=1;resizeParentMax=0;resizeLast=0;collapsible=1;marginBottom=0;fillColor=#f8cecc;strokeColor=#b85450;fontSize=16;spacingTop=-2;" vertex="1" parent="1">
          <mxGeometry x="600" y="126" width="200" height="208" as="geometry" />
        </mxCell>
        <mxCell id="giPu0UekgoksRZJJ2-Mh-32" value="Columns" style="text;strokeColor=#82b366;fillColor=#d5e8d4;align=center;verticalAlign=top;spacingLeft=4;spacingRight=4;overflow=hidden;rotatable=0;points=[[0,0.5],[1,0.5]];portConstraint=eastwest;fontStyle=1;fontSize=14;" vertex="1" parent="giPu0UekgoksRZJJ2-Mh-31">
          <mxGeometry y="26" width="200" height="26" as="geometry" />
        </mxCell>
        <mxCell id="giPu0UekgoksRZJJ2-Mh-33" value="PK int ProductID (Identity)" style="text;strokeColor=none;fillColor=none;align=center;verticalAlign=top;spacingLeft=4;spacingRight=4;overflow=hidden;rotatable=0;points=[[0,0.5],[1,0.5]];portConstraint=eastwest;" vertex="1" parent="giPu0UekgoksRZJJ2-Mh-31">
          <mxGeometry y="52" width="200" height="26" as="geometry" />
        </mxCell>
        <mxCell id="giPu0UekgoksRZJJ2-Mh-34" value="NVARCHAR(128) productName" style="text;strokeColor=none;fillColor=none;align=center;verticalAlign=top;spacingLeft=4;spacingRight=4;overflow=hidden;rotatable=0;points=[[0,0.5],[1,0.5]];portConstraint=eastwest;" vertex="1" parent="giPu0UekgoksRZJJ2-Mh-31">
          <mxGeometry y="78" width="200" height="26" as="geometry" />
        </mxCell>
        <mxCell id="giPu0UekgoksRZJJ2-Mh-35" value="NVARCHAR(128) productName" style="text;strokeColor=none;fillColor=none;align=center;verticalAlign=top;spacingLeft=4;spacingRight=4;overflow=hidden;rotatable=0;points=[[0,0.5],[1,0.5]];portConstraint=eastwest;" vertex="1" parent="giPu0UekgoksRZJJ2-Mh-31">
          <mxGeometry y="104" width="200" height="26" as="geometry" />
        </mxCell>
        <mxCell id="giPu0UekgoksRZJJ2-Mh-37" value="Stored Procedures" style="text;strokeColor=#d79b00;fillColor=#ffe6cc;align=center;verticalAlign=top;spacingLeft=4;spacingRight=4;overflow=hidden;rotatable=0;points=[[0,0.5],[1,0.5]];portConstraint=eastwest;fontStyle=1;fontSize=14;" vertex="1" parent="giPu0UekgoksRZJJ2-Mh-31">
          <mxGeometry y="130" width="200" height="26" as="geometry" />
        </mxCell>
        <mxCell id="giPu0UekgoksRZJJ2-Mh-38" value="+ method(type): type" style="text;strokeColor=none;fillColor=none;align=center;verticalAlign=top;spacingLeft=4;spacingRight=4;overflow=hidden;rotatable=0;points=[[0,0.5],[1,0.5]];portConstraint=eastwest;" vertex="1" parent="giPu0UekgoksRZJJ2-Mh-31">
          <mxGeometry y="156" width="200" height="26" as="geometry" />
        </mxCell>
        <mxCell id="giPu0UekgoksRZJJ2-Mh-39" value="+ method(type): type" style="text;strokeColor=none;fillColor=none;align=center;verticalAlign=top;spacingLeft=4;spacingRight=4;overflow=hidden;rotatable=0;points=[[0,0.5],[1,0.5]];portConstraint=eastwest;" vertex="1" parent="giPu0UekgoksRZJJ2-Mh-31">
          <mxGeometry y="182" width="200" height="26" as="geometry" />
        </mxCell>
        <mxCell id="giPu0UekgoksRZJJ2-Mh-40" value="Termékeket tárolja" style="text;align=center;fontStyle=1;verticalAlign=middle;spacingLeft=3;spacingRight=3;strokeColor=none;rotatable=0;points=[[0,0.5],[1,0.5]];portConstraint=eastwest;fontSize=20;" vertex="1" parent="1">
          <mxGeometry x="600" y="100" width="200" height="26" as="geometry" />
        </mxCell>
        <mxCell id="giPu0UekgoksRZJJ2-Mh-42" value="Version" style="swimlane;fontStyle=1;align=center;verticalAlign=top;childLayout=stackLayout;horizontal=1;startSize=26;horizontalStack=0;resizeParent=1;resizeParentMax=0;resizeLast=0;collapsible=1;marginBottom=0;fillColor=#f8cecc;strokeColor=#b85450;fontSize=16;spacingTop=-2;" vertex="1" parent="1">
          <mxGeometry x="40" y="316" width="320" height="130" as="geometry" />
        </mxCell>
        <mxCell id="giPu0UekgoksRZJJ2-Mh-43" value="Columns" style="text;strokeColor=#82b366;fillColor=#d5e8d4;align=center;verticalAlign=top;spacingLeft=4;spacingRight=4;overflow=hidden;rotatable=0;points=[[0,0.5],[1,0.5]];portConstraint=eastwest;fontStyle=1;fontSize=14;" vertex="1" parent="giPu0UekgoksRZJJ2-Mh-42">
          <mxGeometry y="26" width="320" height="26" as="geometry" />
        </mxCell>
        <mxCell id="giPu0UekgoksRZJJ2-Mh-44" value="NVARCHAR(32) versionNumber" style="text;strokeColor=none;fillColor=none;align=center;verticalAlign=top;spacingLeft=4;spacingRight=4;overflow=hidden;rotatable=0;points=[[0,0.5],[1,0.5]];portConstraint=eastwest;" vertex="1" parent="giPu0UekgoksRZJJ2-Mh-42">
          <mxGeometry y="52" width="320" height="26" as="geometry" />
        </mxCell>
        <mxCell id="giPu0UekgoksRZJJ2-Mh-47" value="Stored Procedures" style="text;strokeColor=#d79b00;fillColor=#ffe6cc;align=center;verticalAlign=top;spacingLeft=4;spacingRight=4;overflow=hidden;rotatable=0;points=[[0,0.5],[1,0.5]];portConstraint=eastwest;fontStyle=1;fontSize=14;" vertex="1" parent="giPu0UekgoksRZJJ2-Mh-42">
          <mxGeometry y="78" width="320" height="26" as="geometry" />
        </mxCell>
        <mxCell id="giPu0UekgoksRZJJ2-Mh-48" value="Boolean IsProgramRunningLatestVersion(NVARCHAR(32)" style="text;strokeColor=none;fillColor=none;align=center;verticalAlign=top;spacingLeft=4;spacingRight=4;overflow=hidden;rotatable=0;points=[[0,0.5],[1,0.5]];portConstraint=eastwest;" vertex="1" parent="giPu0UekgoksRZJJ2-Mh-42">
          <mxGeometry y="104" width="320" height="26" as="geometry" />
        </mxCell>
        <mxCell id="giPu0UekgoksRZJJ2-Mh-50" value="Verziószámot tárolja" style="text;align=center;fontStyle=1;verticalAlign=middle;spacingLeft=3;spacingRight=3;strokeColor=none;rotatable=0;points=[[0,0.5],[1,0.5]];portConstraint=eastwest;fontSize=20;" vertex="1" parent="1">
          <mxGeometry x="40" y="290" width="320" height="26" as="geometry" />
        </mxCell>
      </root>
    </mxGraphModel>
  </diagram>
</mxfile>
